<?xml version="1.0" encoding="UTF-8" standalone="no"?>
<!-- Generator: Adobe Illustrator 16.0.0, SVG Export Plug-In . SVG Version: 6.00 Build 0)  -->

<svg
   xmlns:dc="http://purl.org/dc/elements/1.1/"
   xmlns:cc="http://creativecommons.org/ns#"
   xmlns:rdf="http://www.w3.org/1999/02/22-rdf-syntax-ns#"
   xmlns:svg="http://www.w3.org/2000/svg"
   xmlns="http://www.w3.org/2000/svg"
   xmlns:sodipodi="http://sodipodi.sourceforge.net/DTD/sodipodi-0.dtd"
   xmlns:inkscape="http://www.inkscape.org/namespaces/inkscape"
   version="1.1"
   id="Capa_1"
   x="0px"
   y="0px"
   width="20.025px"
   height="19.866px"
   viewBox="0 0 20.025 19.866"
   enable-background="new 0 0 20.025 19.866"
   xml:space="preserve"
   sodipodi:docname="dpad.svg"
   inkscape:version="0.92.4 (5da689c313, 2019-01-14)"><metadata
   id="metadata105"><rdf:RDF><cc:Work
       rdf:about=""><dc:format>image/svg+xml</dc:format><dc:type
         rdf:resource="http://purl.org/dc/dcmitype/StillImage" /></cc:Work></rdf:RDF></metadata><defs
   id="defs103" /><sodipodi:namedview
   pagecolor="#ffffff"
   bordercolor="#666666"
   borderopacity="1"
   objecttolerance="10"
   gridtolerance="10"
   guidetolerance="10"
   inkscape:pageopacity="0"
   inkscape:pageshadow="2"
   inkscape:window-width="640"
   inkscape:window-height="480"
   id="namedview101"
   showgrid="false"
   inkscape:zoom="11.879594"
   inkscape:cx="-0.42556758"
   inkscape:cy="11.406114"
   inkscape:window-x="52"
   inkscape:window-y="130"
   inkscape:window-maximized="0"
   inkscape:current-layer="Capa_1" />
<g
   id="g98"
   style="fill:#000000">
	<g
   id="g24"
   style="fill:#000000">
		<linearGradient
   id="SVGID_1_"
   gradientUnits="userSpaceOnUse"
   x1="10.0137"
   y1="8.5312996"
   x2="10.0137"
   y2="0">
			<stop
   offset="0.3"
   style="stop-color:#1E1E1E"
   id="stop2" />
			<stop
   offset="1"
   style="stop-color:#5B5B5F"
   id="stop4" />
		</linearGradient>
		<path
   d="M 13.35,5.557 10.014,8.532 6.677,5.557 V 1.115 C 6.677,0.499 7.176,0 7.792,0 h 4.442 c 0.616,0 1.115,0.499 1.115,1.115 v 4.442 z"
   id="path7"
   inkscape:connector-curvature="0"
   style="fill:#000000" />
		<linearGradient
   id="SVGID_2_"
   gradientUnits="userSpaceOnUse"
   x1="10.0137"
   y1="8.5312996"
   x2="10.0137"
   y2="0">
			<stop
   offset="0"
   style="stop-color:#141414"
   id="stop9" />
			<stop
   offset="0.2261"
   style="stop-color:#181818"
   id="stop11" />
			<stop
   offset="0.4603"
   style="stop-color:#242425"
   id="stop13" />
			<stop
   offset="0.6982"
   style="stop-color:#373739"
   id="stop15" />
			<stop
   offset="0.9374"
   style="stop-color:#535356"
   id="stop17" />
			<stop
   offset="1"
   style="stop-color:#5B5B5F"
   id="stop19" />
		</linearGradient>
		<path
   d="m 12.234,0.65 c 0.256,0 0.465,0.209 0.465,0.465 v 4.15 L 10.014,7.66 7.327,5.266 v -4.15 c 0,-0.256 0.209,-0.465 0.465,-0.465 h 4.442 M 12.234,0 H 7.792 C 7.176,0 6.677,0.499 6.677,1.115 V 5.556 L 10.014,8.531 13.35,5.556 V 1.115 C 13.35,0.499 12.851,0 12.234,0 Z"
   id="path22"
   inkscape:connector-curvature="0"
   style="fill:#000000" />
	</g>
	<g
   id="g48"
   style="fill:#000000">
		
			<linearGradient
   id="SVGID_3_"
   gradientUnits="userSpaceOnUse"
   x1="-97.422401"
   y1="-261.7139"
   x2="-97.422401"
   y2="-253.1826"
   gradientTransform="rotate(180,-43.7041,-120.92385)">
			<stop
   offset="0.3"
   style="stop-color:#1E1E1E"
   id="stop26" />
			<stop
   offset="1"
   style="stop-color:#5B5B5F"
   id="stop28" />
		</linearGradient>
		<path
   d="m 6.677,14.309 3.337,-2.974 3.336,2.974 v 4.441 c 0,0.617 -0.499,1.116 -1.115,1.116 H 7.792 c -0.616,0 -1.115,-0.499 -1.115,-1.116 z"
   id="path31"
   inkscape:connector-curvature="0"
   style="fill:#000000" />
		<linearGradient
   id="SVGID_4_"
   gradientUnits="userSpaceOnUse"
   x1="10.0137"
   y1="19.866199"
   x2="10.0137"
   y2="11.335">
			<stop
   offset="0"
   style="stop-color:#141414"
   id="stop33" />
			<stop
   offset="0.2261"
   style="stop-color:#181818"
   id="stop35" />
			<stop
   offset="0.4603"
   style="stop-color:#242425"
   id="stop37" />
			<stop
   offset="0.6982"
   style="stop-color:#373739"
   id="stop39" />
			<stop
   offset="0.9374"
   style="stop-color:#535356"
   id="stop41" />
			<stop
   offset="1"
   style="stop-color:#5B5B5F"
   id="stop43" />
		</linearGradient>
		<path
   d="M 10.014,12.206 12.7,14.6 v 4.15 c 0,0.257 -0.209,0.467 -0.465,0.467 H 7.792 c -0.256,0 -0.465,-0.21 -0.465,-0.467 V 14.6 l 2.687,-2.394 m 0,-0.871 -3.337,2.974 v 4.441 c 0,0.617 0.499,1.116 1.115,1.116 h 4.442 c 0.616,0 1.115,-0.499 1.115,-1.116 v -4.441 z"
   id="path46"
   inkscape:connector-curvature="0"
   style="fill:#000000" />
	</g>
	<g
   id="g72"
   style="fill:#000000">
		
			<linearGradient
   id="SVGID_5_"
   gradientUnits="userSpaceOnUse"
   x1="-104.1772"
   y1="-171.0537"
   x2="-110.8491"
   y2="-171.0537"
   gradientTransform="rotate(90,-136.3706,-18.9233)">
			<stop
   offset="0.3"
   style="stop-color:#1E1E1E"
   id="stop50" />
			<stop
   offset="1"
   style="stop-color:#5B5B5F"
   id="stop52" />
		</linearGradient>
		<path
   d="M 14.469,13.27 11.494,9.933 14.469,6.598 h 4.441 c 0.617,0 1.115,0.499 1.115,1.115 v 4.441 c 0,0.615 -0.5,1.115 -1.115,1.115 h -4.441 z"
   id="path55"
   inkscape:connector-curvature="0"
   style="fill:#000000" />
		<linearGradient
   id="SVGID_6_"
   gradientUnits="userSpaceOnUse"
   x1="15.7598"
   y1="13.2695"
   x2="15.7598"
   y2="6.5977001">
			<stop
   offset="0"
   style="stop-color:#141414"
   id="stop57" />
			<stop
   offset="0.2325"
   style="stop-color:#181818"
   id="stop59" />
			<stop
   offset="0.4734"
   style="stop-color:#242425"
   id="stop61" />
			<stop
   offset="0.7181"
   style="stop-color:#373739"
   id="stop63" />
			<stop
   offset="0.9641"
   style="stop-color:#525256"
   id="stop65" />
			<stop
   offset="1"
   style="stop-color:#57575B"
   id="stop67" />
		</linearGradient>
		<path
   d="m 18.91,7.248 c 0.256,0 0.465,0.208 0.465,0.465 v 4.441 c 0,0.256 -0.209,0.464 -0.465,0.464 H 14.76 L 12.366,9.932 14.76,7.247 h 4.15 m 0,-0.649 h -4.441 l -2.975,3.335 2.975,3.337 h 4.441 c 0.615,0 1.115,-0.5 1.115,-1.115 V 7.713 c 0,-0.616 -0.498,-1.115 -1.115,-1.115 z"
   id="path70"
   inkscape:connector-curvature="0"
   style="fill:#000000" />
	</g>
	<g
   id="g96"
   style="fill:#000000">
		
			<linearGradient
   id="SVGID_7_"
   gradientUnits="userSpaceOnUse"
   x1="17.435499"
   y1="-58.954102"
   x2="24.107401"
   y2="-58.954102"
   gradientTransform="rotate(-90,46.9624,-16.2573)">
			<stop
   offset="0.3"
   style="stop-color:#1E1E1E"
   id="stop74" />
			<stop
   offset="1"
   style="stop-color:#5B5B5F"
   id="stop76" />
		</linearGradient>
		<path
   d="M 5.558,6.598 8.532,9.933 5.558,13.27 H 1.115 C 0.5,13.27 0,12.77 0,12.154 V 7.712 C 0,7.097 0.5,6.598 1.115,6.598 Z"
   id="path79"
   inkscape:connector-curvature="0"
   style="fill:#000000" />
		<linearGradient
   id="SVGID_8_"
   gradientUnits="userSpaceOnUse"
   x1="4.2656002"
   y1="13.2695"
   x2="4.2656002"
   y2="6.5977001">
			<stop
   offset="0"
   style="stop-color:#141414"
   id="stop81" />
			<stop
   offset="0.2261"
   style="stop-color:#181818"
   id="stop83" />
			<stop
   offset="0.4603"
   style="stop-color:#242425"
   id="stop85" />
			<stop
   offset="0.6982"
   style="stop-color:#373739"
   id="stop87" />
			<stop
   offset="0.9374"
   style="stop-color:#535356"
   id="stop89" />
			<stop
   offset="1"
   style="stop-color:#5B5B5F"
   id="stop91" />
		</linearGradient>
		<path
   d="M 5.267,7.248 7.66,9.933 5.266,12.619 H 1.115 C 0.859,12.619 0.65,12.411 0.65,12.155 V 7.712 C 0.65,7.456 0.859,7.248 1.115,7.248 H 5.267 M 5.558,6.598 H 1.115 C 0.5,6.598 0,7.097 0,7.712 v 4.442 c 0,0.615 0.5,1.115 1.115,1.115 H 5.557 L 8.531,9.932 Z"
   id="path94"
   inkscape:connector-curvature="0"
   style="fill:#000000" />
	</g>
</g>
</svg>