<?xml version="1.0" encoding="UTF-8" standalone="no"?>
<!-- Created with Inkscape (http://www.inkscape.org/) -->

<svg
   xmlns:dc="http://purl.org/dc/elements/1.1/"
   xmlns:cc="http://creativecommons.org/ns#"
   xmlns:rdf="http://www.w3.org/1999/02/22-rdf-syntax-ns#"
   xmlns:svg="http://www.w3.org/2000/svg"
   xmlns="http://www.w3.org/2000/svg"
   xmlns:sodipodi="http://sodipodi.sourceforge.net/DTD/sodipodi-0.dtd"
   xmlns:inkscape="http://www.inkscape.org/namespaces/inkscape"
   width="64.300003"
   height="72.697998"
   viewBox="0 0 17.01271 19.234679"
   version="1.1"
   id="svg3211"
   sodipodi:docname="Pausa-di-semiminima.svg"
   inkscape:version="0.92.3 (2405546, 2018-03-11)">
  <defs
     id="defs3205" />
  <sodipodi:namedview
     id="base"
     pagecolor="#ffffff"
     bordercolor="#666666"
     borderopacity="1.0"
     inkscape:pageopacity="0.0"
     inkscape:pageshadow="2"
     inkscape:zoom="0.98994949"
     inkscape:cx="-118.2482"
     inkscape:cy="51.580242"
     inkscape:document-units="mm"
     inkscape:current-layer="layer1"
     showgrid="false"
     units="px"
     inkscape:window-width="1366"
     inkscape:window-height="700"
     inkscape:window-x="0"
     inkscape:window-y="0"
     inkscape:window-maximized="1" />
  <metadata
     id="metadata3208">
    <rdf:RDF>
      <cc:Work
         rdf:about="">
        <dc:format>image/svg+xml</dc:format>
        <dc:type
           rdf:resource="http://purl.org/dc/dcmitype/StillImage" />
        <dc:title></dc:title>
      </cc:Work>
    </rdf:RDF>
  </metadata>
  <g
     inkscape:label="Livello 1"
     inkscape:groupmode="layer"
     id="layer1"
     transform="translate(0,-277.76532)">
    <path
       class="Rest"
       d="m 11.512008,292.73861 -0.0533,-0.082 c -0.0246,-0.0246 -0.0779,-0.0779 -0.15583,-0.18047 l -3.0187694,-3.72833 c -0.082,-0.0779 -0.0533,-0.29122 0,-0.39375 l 2.6742194,-4.04414 c 0.0287,-0.0533 0.0533,-0.13125 0.0533,-0.18459 v -0.23378 c 0,-0.0779 -0.0246,-0.15997 -0.078,-0.20919 l -4.2533094,-5.75038 c 0,0 -0.20918,-0.31581 -0.47167,-0.0779 -0.26249,0.20919 -0.0533,0.54962 -0.0533,0.54962 l 1.99747,2.73163 c 0.10252,0.15587 0.10252,0.47169 0,0.62753 l -2.65375,4.04415 c -0.0246,0.0533 -0.0533,0.15586 -0.0533,0.20918 v 0.23789 c 0,0.0779 0.0287,0.15586 0.082,0.20918 l 2.93671,3.65039 c -0.10255,-0.0287 -0.34044,-0.082 -0.65627,-0.082 -0.44296,0 -1.02126,0.10664 -1.49296,0.525 -0.5783,0.52502 -0.89414,1.2633 -0.89414,1.91955 0,0.36503 0.0779,0.73416 0.2871,1.02128 0.55372,0.84081 2.52246,3.33457 2.52246,3.33457 0,0 0.23381,0.29121 0.4717,0.10665 0.23789,-0.18459 0.18455,-0.42247 0.10665,-0.55372 -0.082,-0.13125 -0.91876,-1.65293 -0.91876,-1.65293 0,0 -0.18457,-0.36913 -0.18457,-0.84082 0,-0.34044 0.10252,-0.75878 0.44709,-1.10331 0.3117,-0.31172 0.68082,-0.41838 1.02126,-0.41838 0.34044,0 0.63164,0.10666 0.8408194,0.23791 l 1.0254,0.65625 c 0,0 0.31173,0.15585 0.47167,-0.082 0.13126,-0.20919 0.0779,-0.31172 0,-0.44297"
       id="path136"
       inkscape:connector-curvature="0"
       style="stroke-width:0.26249999" />
  </g>
</svg>
